<mxfile host="Electron" modified="2023-07-20T12:29:56.082Z" agent="Mozilla/5.0 (Windows NT 10.0; Win64; x64) AppleWebKit/537.36 (KHTML, like Gecko) draw.io/21.6.1 Chrome/112.0.5615.204 Electron/24.6.1 Safari/537.36" etag="NqnMgm8M_ehLaCx7ZsPA" version="21.6.1" type="device">
  <diagram name="Page-1" id="7kWyiCsaif8aqmwb8Psb">
    <mxGraphModel dx="1548" dy="902" grid="1" gridSize="10" guides="1" tooltips="1" connect="1" arrows="1" fold="1" page="1" pageScale="1" pageWidth="850" pageHeight="1100" math="0" shadow="0">
      <root>
        <mxCell id="0" />
        <mxCell id="1" parent="0" />
        <mxCell id="NoulRg_CLc0DGUtvslPU-32" value="&lt;b style=&quot;border-color: var(--border-color);&quot;&gt;&lt;font color=&quot;#66b2ff&quot;&gt;Single CMake Project&lt;br&gt;&lt;b style=&quot;border-color: var(--border-color);&quot;&gt;Single Toolchain&lt;br&gt;&lt;/b&gt;&lt;/font&gt;&lt;br&gt;&lt;br&gt;&lt;br&gt;&lt;br&gt;&lt;br&gt;&lt;br&gt;&lt;br&gt;&lt;br&gt;&lt;br&gt;&lt;br&gt;&lt;br&gt;&lt;br&gt;&lt;br&gt;&lt;br&gt;&lt;br&gt;&lt;br&gt;&lt;br&gt;&lt;br&gt;&lt;br&gt;&lt;br style=&quot;border-color: var(--border-color);&quot;&gt;&lt;/b&gt;" style="rounded=0;whiteSpace=wrap;html=1;fillColor=#dae8fc;strokeColor=#6c8ebf;" parent="1" vertex="1">
          <mxGeometry x="40" y="40" width="540" height="360" as="geometry" />
        </mxCell>
        <mxCell id="NoulRg_CLc0DGUtvslPU-1" value="&lt;b&gt;CMakeLists.txt&lt;br&gt;&lt;/b&gt;" style="rounded=0;whiteSpace=wrap;html=1;" parent="1" vertex="1">
          <mxGeometry x="90" y="110" width="120" height="240" as="geometry" />
        </mxCell>
        <mxCell id="NoulRg_CLc0DGUtvslPU-2" value="Context 1&lt;br&gt;CMake Target" style="rounded=0;whiteSpace=wrap;html=1;" parent="1" vertex="1">
          <mxGeometry x="410" y="110" width="120" height="60" as="geometry" />
        </mxCell>
        <mxCell id="NoulRg_CLc0DGUtvslPU-3" value="Context 2&lt;br style=&quot;border-color: var(--border-color);&quot;&gt;CMake Target" style="rounded=0;whiteSpace=wrap;html=1;" parent="1" vertex="1">
          <mxGeometry x="410" y="200" width="120" height="60" as="geometry" />
        </mxCell>
        <mxCell id="NoulRg_CLc0DGUtvslPU-4" value="Context 3&lt;br style=&quot;border-color: var(--border-color);&quot;&gt;CMake Target" style="rounded=0;whiteSpace=wrap;html=1;" parent="1" vertex="1">
          <mxGeometry x="410" y="290" width="120" height="60" as="geometry" />
        </mxCell>
        <mxCell id="NoulRg_CLc0DGUtvslPU-8" value="" style="endArrow=classic;html=1;rounded=0;exitX=1;exitY=0.5;exitDx=0;exitDy=0;entryX=0;entryY=0.5;entryDx=0;entryDy=0;" parent="1" edge="1">
          <mxGeometry width="50" height="50" relative="1" as="geometry">
            <mxPoint x="210" y="139.5" as="sourcePoint" />
            <mxPoint x="410" y="139.5" as="targetPoint" />
          </mxGeometry>
        </mxCell>
        <mxCell id="NoulRg_CLc0DGUtvslPU-9" value="add_subdirectory" style="edgeLabel;html=1;align=center;verticalAlign=middle;resizable=0;points=[];" parent="NoulRg_CLc0DGUtvslPU-8" vertex="1" connectable="0">
          <mxGeometry x="-0.322" y="1" relative="1" as="geometry">
            <mxPoint x="22" y="-8" as="offset" />
          </mxGeometry>
        </mxCell>
        <mxCell id="NoulRg_CLc0DGUtvslPU-10" value="" style="endArrow=classic;html=1;rounded=0;exitX=1;exitY=0.5;exitDx=0;exitDy=0;entryX=0;entryY=0.5;entryDx=0;entryDy=0;" parent="1" edge="1">
          <mxGeometry width="50" height="50" relative="1" as="geometry">
            <mxPoint x="210" y="229.5" as="sourcePoint" />
            <mxPoint x="410" y="229.5" as="targetPoint" />
          </mxGeometry>
        </mxCell>
        <mxCell id="NoulRg_CLc0DGUtvslPU-11" value="add_subdirectory" style="edgeLabel;html=1;align=center;verticalAlign=middle;resizable=0;points=[];" parent="NoulRg_CLc0DGUtvslPU-10" vertex="1" connectable="0">
          <mxGeometry x="-0.322" y="1" relative="1" as="geometry">
            <mxPoint x="22" y="-8" as="offset" />
          </mxGeometry>
        </mxCell>
        <mxCell id="NoulRg_CLc0DGUtvslPU-12" value="" style="endArrow=classic;html=1;rounded=0;exitX=1;exitY=0.5;exitDx=0;exitDy=0;entryX=0;entryY=0.5;entryDx=0;entryDy=0;" parent="1" edge="1">
          <mxGeometry width="50" height="50" relative="1" as="geometry">
            <mxPoint x="210" y="319.5" as="sourcePoint" />
            <mxPoint x="410" y="319.5" as="targetPoint" />
          </mxGeometry>
        </mxCell>
        <mxCell id="NoulRg_CLc0DGUtvslPU-13" value="add_subdirectory" style="edgeLabel;html=1;align=center;verticalAlign=middle;resizable=0;points=[];" parent="NoulRg_CLc0DGUtvslPU-12" vertex="1" connectable="0">
          <mxGeometry x="-0.322" y="1" relative="1" as="geometry">
            <mxPoint x="22" y="-8" as="offset" />
          </mxGeometry>
        </mxCell>
      </root>
    </mxGraphModel>
  </diagram>
</mxfile>
